<?xml version="1.0" encoding="iso-8859-1"?>

<!DOCTYPE svg PUBLIC "-//W3C//DTD SVG 1.1//EN" "http://www.w3.org/Graphics/SVG/1.1/DTD/svg11.dtd">
<!-- Uploaded to: SVG Repo, www.svgrepo.com, Generator: SVG Repo Mixer Tools -->
<svg height="800px" width="800px" version="1.1" id="_x34_" xmlns="http://www.w3.org/2000/svg" xmlns:xlink="http://www.w3.org/1999/xlink" 
	 viewBox="0 0 512 512"  xml:space="preserve">
<g>
	<path style="fill:#EFECE7;" d="M486.125,197.121c0,97.238-61.275,180.209-147.336,212.294
		c-24.721,9.205-51.348,14.267-79.224,14.267c-4.207,0-8.35-0.132-12.557-0.394c-24.983-1.381-48.849-6.772-71.071-15.516
		c-12.755-5.062-24.918-11.242-36.358-18.409c-29.125-18.211-53.78-42.866-71.991-71.992
		c-21.959-34.845-34.582-76.068-34.582-120.249c0-21.762,3.09-42.866,8.81-62.787c0.197-0.723,0.46-1.447,0.658-2.17
		c5.786-19.329,14.004-37.475,24.392-54.24c8.481-13.675,18.343-26.364,29.389-37.87c4.471-4.602,9.073-9.007,13.872-13.215
		c11.9-10.453,24.918-19.724,38.856-27.482c32.676-18.343,70.414-28.797,110.585-28.797c38.33,0,74.424,9.533,106.048,26.298
		c10.98,5.786,21.367,12.492,31.098,19.921c8.876,6.772,17.225,14.136,24.983,22.091l0.066,0.066
		c10.256,10.454,19.461,21.959,27.416,34.254c0.526,0.657,0.921,1.315,1.315,2.038c10.914,16.962,19.592,35.568,25.641,55.226
		c0.526,1.644,1.052,3.353,1.512,4.997C483.167,155.044,486.125,175.688,486.125,197.121z"/>
	<path style="fill:#E1D9D2;" d="M486.126,197.1c0,97.291-61.283,180.256-147.343,212.304l-121.421-121.42l27.583-135.606
		L423.76,81.586l53.864,53.871C483.173,155.044,486.126,175.713,486.126,197.1z"/>
	<g>
		<path style="fill:#EED5B1;" d="M140.236-8.466c-15.121,8.481-24.458,22.551-30.112,35.306c-2.695,5.983-4.602,11.769-5.917,16.437
			c-1.709-0.986-3.484-1.775-5.259-2.433c-0.921-0.263-1.775-0.591-2.696-0.789c-0.526-0.197-1.052-0.329-1.512-0.394
			c-1.183-0.329-2.301-0.526-3.484-0.657c-1.315-0.197-2.564-0.263-3.879-0.263c-3.353,0-6.64,0.526-9.796,1.644
			c-1.249,0.46-2.498,0.986-3.747,1.644c-0.592,0.329-1.183,0.658-1.775,1.052C51.282,21.119,45.694-3.338,44.247-15.501
			c12.624-7.1,27.219-11.242,42.735-11.242C107.035-26.744,125.509-19.906,140.236-8.466z"/>
		<path style="fill:#D5C7B0;" d="M68.705,45.511c-9.928,8.35-9.993,22.288-4.799,29.454C37.212,78.779,14.53,69.509,0.066,59.647
			C0.263,27.431,18.014-0.643,44.247-15.501c1.447,12.163,7.035,36.621,27.811,58.58C70.94,43.802,69.822,44.591,68.705,45.511z"/>
		<path style="fill:#D5C7B0;" d="M173.964,60.172c0,1.249,0,2.564-0.132,3.813c-0.132,4.274-0.657,8.416-1.512,12.557v0.198
			c-5.523-0.921-11.177-1.512-16.568-1.775c-10.256-0.46-19.921,0.329-27.745,2.104c-0.066-0.46-0.197-0.921-0.263-1.38
			c-0.263-1.118-0.526-2.235-0.789-3.287c-0.526-1.841-1.118-3.616-1.841-5.325c-0.329-0.855-0.658-1.644-1.052-2.433
			c-0.263-0.526-0.526-1.117-0.855-1.709c-0.526-0.986-1.052-1.907-1.578-2.827c-0.921-1.446-1.841-2.893-2.893-4.273
			c-0.723-0.921-1.512-1.841-2.235-2.696c-0.132-0.131-0.263-0.329-0.395-0.46c-0.854-0.921-1.775-1.841-2.695-2.696
			c-0.986-0.921-1.972-1.775-2.959-2.564c-1.972-1.578-4.076-2.958-6.246-4.142c1.315-4.668,3.222-10.453,5.917-16.437
			c5.654-12.755,14.99-26.824,30.112-35.306c3.09,2.433,5.983,4.997,8.744,7.824c8.481,8.547,15.188,18.935,19.461,30.44
			C172.057,39.265,173.964,49.522,173.964,60.172z"/>
		<g>
			<path style="fill:#C7BBAB;" d="M49.66,138.651c11.323,5.401,23.947,8.509,37.33,8.509c14.797,0,28.687-3.763,40.874-10.282
				c-2.926-8.032-6.85-13.391-10.627-17.273C102.054,140.816,74.675,147.139,49.66,138.651z"/>
			<path style="fill:#E4CBAA;" d="M172.332,76.734c-16.056-2.68-32.351-2.433-44.341,0.344c1.99,11.386,0.189,24.439-7.547,37.977
				c-0.949,1.66-2.131,3.038-3.207,4.55c3.777,3.882,7.701,9.241,10.627,17.273C150.58,124.726,167.304,102.84,172.332,76.734z"/>
		</g>
		<path style="fill:#DCCEB7;" d="M70.498,79.386c1.519-6.843,19.276-29.151,46.022-26.219C104.586,39.65,86.23,34.151,72.087,43.054
			c1.392,1.47,2.088,2.209,2.088,2.209s-0.696-0.739-2.088-2.209c-1.154,0.725-2.286,1.512-3.376,2.433
			c-9.944,8.39-9.979,22.301-4.839,29.454c1.527-0.218,2.286-0.331,2.286-0.331s-0.759,0.112-2.286,0.331
			C65.575,77.311,67.839,78.942,70.498,79.386z"/>
		<g>
			<path style="fill:#EED5B1;" d="M132.042,106.138c-1.688-1.167-3.77-2.391-6.034-3.629c-0.099,0.288-0.204,0.584-0.303,0.872
				L132.042,106.138z"/>
			<path style="fill:#EED5B1;" d="M125.705,103.381c0.099-0.288,0.204-0.584,0.303-0.872c-6.85-3.735-16.042-7.532-25.979-10.289
				L125.705,103.381z"/>
			<path style="fill:#F5DDB9;" d="M116.52,53.167c-26.746-2.932-44.503,19.376-46.022,26.219l0.893,8.917
				c9.262-0.372,19.248,1.316,28.638,3.918c9.937,2.757,19.129,6.554,25.979,10.289C132.386,82.761,126.9,64.926,116.52,53.167z"/>
		</g>
		<g>
			<path style="fill:#EED5B1;" d="M71.4,88.312c1.447,18.08-13.018,33.794-28.928,43.852c-0.723,0.46-1.381,0.921-2.104,1.315
				C16.174,118.029,0,91.007,0,60.172c0-0.131,0.066-0.329,0.066-0.526c14.464,9.862,37.146,19.132,63.839,15.319
				c0.854,1.183,1.841,2.235,2.958,2.959c1.118,0.723,2.301,1.249,3.616,1.447L71.4,88.312z"/>
			<path style="fill:#DCCEB7;" d="M125.706,103.368c-0.329,0.921-0.657,1.841-0.986,2.761c-0.066,0.066-0.066,0.132-0.066,0.197
				c-0.394,0.921-0.789,1.906-1.249,2.827c-0.394,0.986-0.855,1.972-1.381,2.959c-0.526,0.986-1.052,1.972-1.578,2.959
				c-0.92,1.644-1.972,3.221-3.024,4.733c-0.526,0.723-1.052,1.381-1.578,2.104c-10.19,12.82-25.115,19.592-41.091,20.316
				c-2.695,0.197-5.457,0.131-8.284-0.132c-0.591,0-1.183-0.066-1.841-0.197c-1.381-0.065-2.762-0.263-4.142-0.526
				c-3.682-0.592-7.298-1.512-10.848-2.696c-2.695-1.315-5.325-2.761-7.824-4.339c-0.526-0.263-0.986-0.526-1.446-0.855
				c0.723-0.394,1.38-0.855,2.104-1.315c15.91-10.059,30.375-25.772,28.928-43.852c9.27-0.394,19.263,1.315,28.6,3.879l16.897,7.364
				L125.706,103.368z"/>
		</g>
	</g>
	<path style="fill:#FFFFFF;" d="M384.454,92.755c-24.974-16.049-47.879-29.749-47.879-29.749l-71.896-17.835h-8.664h-8.664
		l-71.896,17.835c0,0-22.906,13.7-47.879,29.749c-11.97,7.694-23.229,13.243-20.507,20.514c4.543,12.118,31.964,18.067,46.599,3.573
		c0,0,0,54.012,0,75.87c0,21.857,58.829,41.887,58.829,74.674c0,32.583,42.977,30.993,43.519,30.972
		c0.542,0.021,43.519,1.61,43.519-30.972c0-32.786,58.829-52.816,58.829-74.674c0-21.858,0-75.87,0-75.87
		c14.636,14.494,42.056,8.545,46.599-3.573C407.683,105.997,396.424,100.449,384.454,92.755z"/>
	<path style="fill:#564236;" d="M197.411,149.874h-15.275l4.944,6.689c-0.639,1.42-1.005,2.981-1.005,4.627
		c0,6.26,5.078,11.337,11.337,11.337c6.252,0,11.323-5.078,11.323-11.337C208.734,154.945,203.663,149.874,197.411,149.874z"/>
	<g>
		<path style="fill:#EED5B1;" d="M467.783-15.501c0,0.198-0.066,0.46-0.066,0.724c-1.578,12.36-7.363,36.292-27.745,57.856
			c-0.591-0.395-1.183-0.723-1.775-1.052c-1.249-0.657-2.498-1.183-3.748-1.644c-3.156-1.118-6.443-1.644-9.796-1.644
			c-0.986,0-1.973,0.066-2.959,0.132c-0.329,0.066-0.592,0.066-0.921,0.132c-1.118,0.132-2.301,0.329-3.419,0.657
			c-0.394,0-0.789,0.132-1.183,0.263c-1.052,0.263-2.104,0.591-3.09,0.92c-1.775,0.658-3.551,1.447-5.26,2.433
			c-2.038-7.232-5.457-17.028-11.111-26.495c-5.72-9.599-13.741-19.001-24.918-25.247c14.727-11.44,33.202-18.277,53.254-18.277
			c14.858,0,28.862,3.813,41.091,10.388C466.73-16.093,467.256-15.83,467.783-15.501z"/>
		<path style="fill:#D5C7B0;" d="M448.157,74.941c5.141-7.153,5.106-21.063-4.839-29.454c-1.09-0.921-2.222-1.709-3.376-2.433
			c20.775-21.949,26.366-46.409,27.822-58.547c26.253,14.846,44.025,42.907,44.215,75.166
			C497.505,69.525,474.818,78.788,448.157,74.941z"/>
		<path style="fill:#D5C7B0;" d="M407.822,43.276c-2.17,1.184-4.274,2.564-6.246,4.142c-0.986,0.789-1.972,1.644-2.959,2.564
			c-0.921,0.855-1.841,1.775-2.695,2.696c-0.132,0.131-0.263,0.329-0.395,0.46c-0.723,0.855-1.512,1.775-2.235,2.696
			c-1.052,1.381-1.972,2.827-2.893,4.273c-0.526,0.92-1.052,1.841-1.578,2.827c-0.329,0.592-0.592,1.183-0.855,1.709
			c-0.395,0.789-0.723,1.578-1.052,2.433c-0.723,1.709-1.315,3.484-1.841,5.325c-0.263,1.052-0.526,2.169-0.789,3.287
			c-0.066,0.46-0.197,0.92-0.263,1.38c-7.823-1.775-17.488-2.564-27.745-2.104c-5.391,0.263-11.045,0.855-16.568,1.775
			c0-0.066,0-0.066,0-0.132c-0.855-4.142-1.38-8.349-1.512-12.623c-0.132-1.249-0.132-2.564-0.132-3.813
			c0-10.717,1.907-20.973,5.523-30.44c4.733-12.623,12.36-23.866,22.025-32.873c1.972-1.906,4.011-3.682,6.18-5.325
			C382.97-2.22,390.991,7.181,396.711,16.78C402.365,26.248,405.784,36.044,407.822,43.276z"/>
		<g>
			<path style="fill:#C7BBAB;" d="M462.37,138.651c-11.323,5.401-23.947,8.509-37.33,8.509c-14.797,0-28.687-3.763-40.874-10.282
				c2.926-8.032,6.85-13.391,10.626-17.273C409.976,140.816,437.354,147.139,462.37,138.651z"/>
			<path style="fill:#E4CBAA;" d="M339.697,76.734c16.056-2.68,32.351-2.433,44.342,0.344c-1.99,11.386-0.19,24.439,7.546,37.977
				c0.949,1.66,2.131,3.038,3.207,4.55c-3.777,3.882-7.701,9.241-10.626,17.273C361.449,124.726,344.726,102.84,339.697,76.734z"/>
		</g>
		<path style="fill:#DCCEB7;" d="M441.532,79.386c-1.519-6.843-19.277-29.151-46.023-26.219
			c11.935-13.517,30.29-19.016,44.433-10.113c-1.392,1.47-2.088,2.209-2.088,2.209s0.696-0.739,2.088-2.209
			c1.154,0.725,2.286,1.512,3.376,2.433c9.945,8.39,9.979,22.301,4.839,29.454c-1.526-0.218-2.286-0.331-2.286-0.331
			s0.76,0.112,2.286,0.331C446.454,77.311,444.19,78.942,441.532,79.386z"/>
		<g>
			<path style="fill:#EED5B1;" d="M379.988,106.138c1.687-1.167,3.769-2.391,6.033-3.629c0.099,0.288,0.204,0.584,0.303,0.872
				L379.988,106.138z"/>
			<path style="fill:#EED5B1;" d="M386.324,103.381c-0.098-0.288-0.204-0.584-0.303-0.872c6.85-3.735,16.042-7.532,25.98-10.289
				L386.324,103.381z"/>
			<path style="fill:#F5DDB9;" d="M395.509,53.167c26.746-2.932,44.503,19.376,46.023,26.219l-0.894,8.917
				c-9.262-0.372-19.248,1.316-28.637,3.918c-9.937,2.757-19.129,6.554-25.98,10.289C379.643,82.761,385.129,64.926,395.509,53.167z
				"/>
		</g>
		<g>
			<path style="fill:#EED5B1;" d="M440.638,88.302l0.894-8.917c2.658-0.444,4.922-2.075,6.625-4.445
				c26.661,3.847,49.349-5.416,63.822-15.268C511.986,59.848,512,60.024,512,60.2c0,30.838-16.119,57.831-40.333,73.253
				C454.887,123.481,439.133,107.178,440.638,88.302z"/>
			<path style="fill:#DCCEB7;" d="M412.001,92.22c9.389-2.602,19.375-4.29,28.637-3.918c-1.505,18.876,14.248,35.178,31.029,45.151
				c-2.989,1.906-6.076,3.664-9.297,5.197c-26.795,9.093-56.487,1.42-70.785-23.595c-2.25-3.946-3.952-7.842-5.261-11.674
				L412.001,92.22z"/>
		</g>
	</g>
	<path style="fill:#564236;" d="M314.619,149.874h15.275l-4.944,6.689c0.639,1.42,1.005,2.981,1.005,4.627
		c0,6.26-5.078,11.337-11.337,11.337c-6.252,0-11.323-5.078-11.323-11.337C303.296,154.945,308.366,149.874,314.619,149.874z"/>
	<path style="fill:#564236;" d="M280.904,291.873c0,4.178-11.119,7.553-24.84,7.553c-13.72,0-24.84-3.375-24.84-7.553
		s11.119-7.56,24.84-7.56C269.785,284.313,280.904,287.695,280.904,291.873z"/>
	<path style="fill:#EFECE7;" d="M313.634,14.094c-13.25,0-24.868,7.025-31.317,17.547c-7.096-5.992-16.246-9.607-26.254-9.607
		c-10,0-19.164,3.615-26.239,9.607c-6.47-10.521-18.067-17.547-31.331-17.547c-20.283,0-36.725,16.443-36.725,36.725
		c0,20.275,16.442,36.718,36.725,36.718c7.87,0,15.156-2.482,21.134-6.688c6.667,13.376,20.472,22.575,36.436,22.575
		s29.777-9.199,36.437-22.575c5.985,4.206,13.264,6.688,21.134,6.688c20.275,0,36.718-16.443,36.718-36.718
		C350.352,30.536,333.909,14.094,313.634,14.094z"/>
</g>
</svg>